PathFileType	4	(X/Y/Z)	Run_200 01
DataRate	CameraRate	NumFrames	NumMarkers	Units	OrigDataRate	OrigDataStartFrame	OrigNumFrames
120	120	4	42	mm	120	216	128
Frame#	Time	LASI			RASI			LPSI			RPSI			RTH1			RTH2			RTH3			LTH1			LTH2			LTH3			RTB2			RTB3			LTB1			LTB2			LTB3			RCAL			RTOE			RMT5			LCAL			LTOE			LMT5			LACR			RACR			CLAV			C7			RUA1			RUA2			RUA3			RLEL			RMEL			LUA1			LUA2			LUA3			LLEL			LMEL			RFAsuperior			RFAradius			RFAulna			LFAsuperior			LFAradius			LFAulna			RTB1			
		X1	Y1	Z1	X2	Y2	Z2	X3	Y3	Z3	X4	Y4	Z4	X5	Y5	Z5	X6	Y6	Z6	X7	Y7	Z7	X8	Y8	Z8	X9	Y9	Z9	X10	Y10	Z10	X11	Y11	Z11	X12	Y12	Z12	X13	Y13	Z13	X14	Y14	Z14	X15	Y15	Z15	X16	Y16	Z16	X17	Y17	Z17	X18	Y18	Z18	X19	Y19	Z19	X20	Y20	Z20	X21	Y21	Z21	X22	Y22	Z22	X23	Y23	Z23	X24	Y24	Z24	X25	Y25	Z25	X26	Y26	Z26	X27	Y27	Z27	X28	Y28	Z28	X29	Y29	Z29	X30	Y30	Z30	X31	Y31	Z31	X32	Y32	Z32	X33	Y33	Z33	X34	Y34	Z34	X35	Y35	Z35	X36	Y36	Z36	X37	Y37	Z37	X38	Y38	Z38	X39	Y39	Z39	X40	Y40	Z40	X41	Y41	Z41	X42	Y42	Z42	

215	2.016667	500.219316	993.673399	-442.434607	489.457479	978.246275	-190.534716	324.586975	1002.320842	-353.267046	327.615254	1001.903644	-268.979737	481.380003	801.1188529999999	-157.942395	548.713934	689.303948	-173.770885	481.672703	559.94095	-165.151257	476.631793	854.550608	-490.018695	559.993499	759.466527	-471.752659	530.577681	609.227887	-466.59324	331.02506	385.056284	-171.57702	242.021663	315.57092	-237.007662	584.43076	378.503824	-377.946239	528.470307	277.798156	-426.287191	525.419628	198.558834	-349.138594	98.902001	369.091006	-265.730616	124.079866	153.535321	-238.276064	78.281695	193.434822	-159.320092	385.836544	99.28389300000001	-346.622603	602.3439049999999	75.74344499999999	-341.756477	575.2285900000001	60.061882	-429.061885	469.560572	1425.66155	-517.921575	485.199536	1432.181926	-133.205853	574.494503	1394.948623	-302.20602	441.155606	1490.020122	-329.305263	460.428159	1327.710864	-66.04937200000001	471.646228	1256.709516	-66.73929200000001	381.555363	1258.080408	-11.558972	407.694331	1173.523379	22.417332	340.492246	1153.229281	-34.749966	432.33148	1361.39513	-576.844527	360.05277	1305.218625	-570.594794	406.279574	1281.770769	-629.652249	369.159837	1190.433015	-684.088247	327.168063	1141.468881	-619.890269	479.3251	1149.517617	-15.967616	586.490449	1115.91534	-137.881321	564.352316	1054.597281	-117.151605	439.989717	1187.394371	-672.899331	580.065056	1165.956696	-565.4828209999999	582.949959	1111.892803	-603.480764	410.369798	378.686437	-220.754247	
216	2.025	497.360658	992.409316	-444.467337	487.112293	976.15326	-187.700345	322.53368	1000.538697	-349.186775	325.455137	999.739603	-265.624204	484.247633	799.174938	-158.203464	555.46613	689.328998	-175.162557	493.460498	559.045712	-165.447775	473.310421	853.2859	-490.751906	556.565975	758.296461	-472.969468	525.621792	606.879653	-468.329207	344.914936	386.416324	-171.672246	254.606395	318.978191	-237.020911	575.4285180000001	375.176388	-379.921981	516.660373	275.380506	-427.178351	511.66417	196.721219	-349.816695	110.78989	374.157596	-264.593577	135.940735	158.569158	-236.813456	93.20174799999999	199.43108	-156.162284	369.556706	99.748165	-346.747066	585.622039	74.912893	-342.216714	558.484418	59.702176	-429.549696	471.025082	1420.870684	-519.691239	482.502576	1429.889074	-133.553797	573.756123	1391.893139	-301.323246	441.68585	1487.83228	-330.934916	455.929718	1325.207307	-67.369721	465.400117	1253.975624	-69.217259	374.804527	1256.027698	-15.635203	400.143682	1171.12781	19.462789	334.45381	1151.142557	-38.839302	434.835669	1354.970584	-578.333062	364.729616	1296.357127	-572.040535	412.079897	1274.653238	-630.91786	378.958287	1182.55936	-685.755692	337.215874	1132.244524	-622.981523	472.397983	1145.244686	-16.797668	581.9367549999999	1107.246528	-135.062428	557.589471	1046.434926	-114.091312	449.910371	1180.307038	-673.035765	588.548886	1159.816556	-565.275616	592.5285270000001	1105.687255	-603.301498	424.051622	379.341111	-221.114265	
217	2.033333	494.559136	992.144808	-445.851802	485.327901	975.957445	-185.560569	321.04156	999.890435	-346.581545	323.855795	999.472723	-262.963331	486.466161	797.889735	-158.390195	562.130501	690.151823	-176.515033	505.094306	559.186856	-165.745705	469.933312	852.216421	-491.589346	551.688419	755.74416	-474.367045	517.3244560000001	604.067083	-468.963544	359.049066	388.09976	-171.73206	267.777947	322.138853	-236.996361	565.142844	371.010346	-381.886862	503.162423	272.39669	-427.912863	496.858114	194.526068	-350.20346	122.395386	378.200992	-262.576176	149.951923	162.664329	-236.329584	110.209154	203.3344	-153.532052	352.987454	100.080379	-346.881402	568.815665	74.639005	-342.334333	541.529884	59.520368	-429.970384	472.286332	1417.038438	-520.720568	479.795419	1428.655495	-134.082917	572.74852	1389.833822	-300.57333	441.709162	1486.1689	-332.129143	451.170823	1323.991464	-68.65375299999999	459.521681	1252.788829	-71.053898	367.730492	1255.040547	-20.187069	392.547312	1169.867684	16.236814	328.403536	1150.0743	-43.331032	437.019841	1349.910112	-578.9862450000001	369.66484	1288.408643	-572.181699	417.75968	1268.752169	-631.353325	389.217944	1175.871077	-686.60673	347.493329	1124.007173	-625.418628	465.613845	1142.673794	-17.843999	577.192243	1099.273561	-132.257937	550.380629	1039.144656	-111.06045	460.148131	1174.742844	-671.808304	597.333014	1154.503329	-564.201355	602.2735	1100.395723	-602.5128099999999	437.8572	380.733125	-221.548209	
218	2.041667	491.999956	992.532616	-446.555746	483.751216	976.584162	-184.585739	319.742305	999.914261	-345.707108	322.464157	1000.028254	-261.467415	488.142124	797.2412430000001	-158.509593	568.594433	691.9952919999999	-177.662347	516.448998	560.219521	-166.091014	466.500804	851.556317	-492.132689	545.457234	752.322903	-475.891455	506.791184	601.561793	-468.872828	373.326032	390.145084	-171.773561	281.463722	324.937962	-236.78887	553.795629	367.047468	-383.691181	488.786916	269.768989	-428.630459	481.625327	192.696096	-350.641053	133.829374	381.096287	-259.771405	165.7788	165.731544	-236.327807	128.618443	205.206136	-151.558553	336.407898	100.474789	-347.062578	552.088043	74.53778	-342.618077	524.556824	59.395249	-430.395105	473.573971	1414.237496	-521.1308749999999	477.07384	1428.386168	-134.704981	571.7364229999999	1388.514119	-299.834589	441.191085	1485.017833	-333.096469	446.051143	1323.878283	-69.83041799999999	453.949111	1252.823916	-72.025076	360.425251	1255.018063	-24.902186	384.851672	1169.696377	13.015389	322.217898	1150.016699	-47.923795	439.300841	1346.044027	-579.070252	374.779828	1281.599757	-571.312629	423.282118	1264.020881	-631.169267	399.460452	1170.376481	-686.747102	357.630428	1116.981153	-627.084575	458.722047	1141.463715	-19.061593	572.165421	1092.410674	-129.561147	542.740103	1033.121872	-108.221822	470.226492	1170.507532	-669.725625	606.211304	1150.296394	-562.174723	612.0061040000001	1096.294955	-601.0944940000001	451.5962	382.789028	-222.260743	
